# xmcd
#
# Track frame offsets: 
#        150
#        15139
#        28056
#        49734
#        72493
#        92396
#        106543
#        121687
#        131798
#        144325
#        157392
#        171739
#        185347
#        197486
#        211492
#        231608
#
# Disc length: 3271 seconds
#
# Revision: 0
# Processed by: cddbd v1.5.2PL0 Copyright (c) Steve Scherf et al.
# Submitted via: ExactAudioCopy v1.3
#
DISCID=df0cc510
DTITLE=Muddy Waters - Louisiana Blues
DYEAR=2019
DGENRE=Blues
TTITLE0=Streamline Woman
TTITLE1=Got My Mojo Workin’
TTITLE2=Goodbye Newport Blues
TTITLE3=Five Long Years
TTITLE4=Guide Me Home
TTITLE5=Screamin’ and Cryin’
TTITLE6=Honey Bee
TTITLE7=Looking the World Over
TTITLE8=Train Fare Blues
TTITLE9=Louisiana Blues
TTITLE10=Blow Wind Blow
TTITLE11=I Feel so Good
TTITLE12=Long Distance Call
TTITLE13=My Home Is In the Delta
TTITLE14=Tiger in Your Tank
TTITLE15=You’re Gonna Need My Help
EXTD=
EXTT0=
EXTT1=
EXTT2=
EXTT3=
EXTT4=
EXTT5=
EXTT6=
EXTT7=
EXTT8=
EXTT9=
EXTT10=
EXTT11=
EXTT12=
EXTT13=
EXTT14=
EXTT15=
PLAYORDER=
